<svg width="55" height="55" viewBox="0 0 55 55" fill="none" xmlns="http://www.w3.org/2000/svg">
<g clip-path="url(#clip0_130_1925)">
<path d="M54.7601 21.7838C54.3487 20.9658 53.4777 20.4685 52.5777 20.5468L49.8418 20.7467C46.8741 10.0204 37.0509 2.10938 25.3917 2.10938C11.3907 2.1092 0 13.5008 0 27.5008C0 41.5018 11.3907 52.8923 25.3916 52.8923C33.4959 52.8923 41.182 48.9714 45.9518 42.4056C46.6838 41.3955 46.4587 39.9855 45.4505 39.2515C44.4404 38.5186 43.0294 38.7464 42.2974 39.7517C38.3737 45.153 32.054 48.3784 25.3905 48.3784C13.8782 48.3784 4.51356 39.0129 4.51356 27.5015C4.51356 15.9901 13.8784 6.62488 25.3907 6.62488C34.6625 6.62488 42.5332 12.705 45.2478 21.0837L43.8233 21.1879C42.9135 21.2536 42.1323 21.8638 41.8455 22.7292C41.5577 23.5964 41.8223 24.5506 42.5119 25.1473L46.6103 28.6866C47.0091 29.3288 47.7141 29.7585 48.5234 29.7585C48.5659 29.7585 48.6055 29.7489 48.647 29.747C48.6605 29.747 48.6712 29.7528 48.6838 29.7528C48.7379 29.7528 48.793 29.7519 48.8489 29.747C49.4456 29.7026 50 29.4235 50.3922 28.9705L54.4491 24.2732C55.0479 23.5829 55.1696 22.5987 54.7601 21.7838Z" fill="#1C274C"/>
<path d="M13.4535 35.3673V33.1751L15.4526 31.3683C18.8315 28.3457 20.4734 26.6072 20.5206 24.7994C20.5206 23.5372 19.7596 22.5386 17.9731 22.5386C16.6414 22.5386 15.4747 23.203 14.6655 23.8239L13.6419 21.2281C14.8084 20.3503 16.6162 19.6348 18.711 19.6348C22.2098 19.6348 24.1373 21.6811 24.1373 24.4894C24.1373 27.0833 22.2581 29.1548 20.0204 31.1529L18.5922 32.3427V32.3891H24.4232V35.3654H13.4535V35.3673Z" fill="#1C274C"/>
<path d="M33.0711 35.3673V31.6773H26.2174V29.3229L32.0717 19.8965H36.4986V28.9646H38.3547V31.6773H36.4986V35.3673H33.0711ZM33.0711 28.9646V25.5382C33.0711 24.6093 33.1185 23.659 33.1899 22.6585H33.0952C32.594 23.659 32.1894 24.5629 31.667 25.5382L29.5966 28.9172V28.9646H33.0711Z" fill="#1C274C"/>
</g>
<defs>
<clipPath id="clip0_130_1925">
<rect width="55" height="55" fill="white"/>
</clipPath>
</defs>
</svg>
