<svg width="29" height="29" viewBox="0 0 29 29" fill="none" xmlns="http://www.w3.org/2000/svg">
<g clip-path="url(#clip0_137_639)">
<path d="M6.26167 23.3279C5.96521 23.6572 5.74392 24.0359 5.62005 24.4192C5.53333 24.6891 5.4917 24.9555 5.4917 25.2051C5.4917 25.3573 5.50677 25.5024 5.5395 25.6396C5.56431 25.7414 5.5979 25.8388 5.64304 25.9281C5.67669 25.9963 5.71741 26.0609 5.76516 26.1193C5.83687 26.206 5.92534 26.2812 6.03069 26.3334C6.13514 26.3866 6.2555 26.4149 6.37761 26.414V25.8608C6.35196 25.8608 6.33247 25.8573 6.31389 25.852C6.28116 25.8432 6.25459 25.8281 6.22452 25.8015C6.20327 25.7812 6.18028 25.7546 6.15904 25.7183C6.12715 25.6661 6.09707 25.5936 6.07674 25.5068C6.05641 25.4192 6.04485 25.3174 6.04485 25.2051C6.04485 25.0183 6.07759 24.8059 6.14663 24.5882C6.21126 24.3882 6.31389 24.181 6.44842 23.9846C6.64932 23.689 6.92369 23.4191 7.24048 23.2261C7.398 23.1297 7.56792 23.0518 7.74407 22.9987C7.92107 22.9455 8.10606 22.9172 8.29722 22.9172C8.5521 22.9172 8.79639 22.9685 9.02471 23.0606C9.36631 23.1969 9.67517 23.4261 9.92213 23.6995C10.1682 23.9722 10.3513 24.2889 10.447 24.5881C10.5169 24.8059 10.5496 25.0183 10.5496 25.205C10.5496 25.3192 10.5372 25.4227 10.516 25.5103C10.5009 25.5758 10.4797 25.6343 10.4567 25.6803C10.439 25.7157 10.4204 25.744 10.401 25.7679C10.3726 25.8024 10.3443 25.8245 10.3169 25.8387C10.2886 25.8519 10.2594 25.8599 10.2169 25.8608V26.414C10.2894 26.4149 10.3611 26.4043 10.4293 26.3857C10.5487 26.3529 10.6558 26.291 10.7435 26.2104C10.8089 26.1502 10.8638 26.0812 10.909 26.006C10.978 25.8927 11.0258 25.767 11.0568 25.6325C11.0877 25.498 11.1028 25.3546 11.1028 25.2051C11.1028 24.9555 11.0612 24.6882 10.9745 24.4192C10.8922 24.1634 10.7665 23.9103 10.6036 23.6722C10.3593 23.3155 10.0337 22.9916 9.64249 22.7527C9.44691 22.6341 9.23536 22.5367 9.0097 22.4695C8.78405 22.4004 8.54508 22.3633 8.29728 22.3633C7.96718 22.3633 7.65208 22.4306 7.36446 22.5465C6.93162 22.7199 6.55813 22.9996 6.26167 23.3279Z" fill="black"/>
<path d="M9.37969 25.6071C9.2894 25.6788 9.23633 25.7868 9.23633 25.9027V26.3497C9.23633 26.4647 9.28946 26.5736 9.37969 26.6453C9.46997 26.7161 9.58858 26.7427 9.70004 26.7161L9.99831 26.6453V25.6063L9.70004 25.5355C9.58852 25.5089 9.46997 25.5355 9.37969 25.6071Z" fill="black"/>
<path d="M6.89433 25.5355L6.59521 25.6063V26.6453L6.89433 26.7161C7.00586 26.7427 7.12446 26.7161 7.21469 26.6453C7.30498 26.5736 7.35805 26.4647 7.35805 26.3497V25.9027C7.35805 25.7868 7.30492 25.6788 7.21469 25.6071C7.12446 25.5354 7.00586 25.5089 6.89433 25.5355Z" fill="black"/>
<path d="M25.684 24.3325C25.5698 23.906 25.4088 23.5236 25.2106 23.1838C24.8627 22.5864 24.4025 22.1218 23.8946 21.7536C23.5132 21.4775 23.106 21.2518 22.6919 21.058C22.0715 20.7677 21.4369 20.5447 20.851 20.3278C20.2652 20.1119 19.7297 19.9004 19.3129 19.6543C19.1607 19.564 19.0235 19.4702 18.9049 19.372C18.7279 19.2243 18.5898 19.0667 18.4899 18.8906C18.3899 18.7145 18.3226 18.5162 18.2969 18.2684C18.2784 18.0914 18.2704 17.925 18.2704 17.7658C18.2704 17.2967 18.3394 16.8905 18.4279 16.4754C18.6899 16.1798 18.9297 15.8276 19.1562 15.4063C19.3837 14.9824 19.5996 14.4877 19.8147 13.9018C19.9528 13.839 20.0917 13.7637 20.2271 13.6717C20.5369 13.4646 20.8307 13.1743 21.0758 12.7875C21.3201 12.4008 21.5165 11.9202 21.651 11.3273C21.6882 11.1627 21.7059 10.9989 21.7059 10.8379C21.7068 10.5015 21.6271 10.1812 21.4935 9.89445C21.4006 9.6953 21.2829 9.51303 21.1457 9.34753C21.2156 9.08908 21.3005 8.74131 21.3767 8.33417C21.4811 7.76867 21.5678 7.08898 21.5678 6.37474C21.5678 5.91363 21.5315 5.43751 21.4377 4.96756C21.3678 4.61531 21.2642 4.26573 21.1191 3.93121C20.9005 3.42761 20.5828 2.95415 20.1412 2.56299C19.7323 2.201 19.2198 1.91253 18.6012 1.72754C18.3826 1.46558 18.1632 1.24253 17.9384 1.05318C17.7436 0.890335 17.5445 0.753152 17.341 0.640776C17.0348 0.470854 16.7179 0.358479 16.3931 0.290284C16.0684 0.222088 15.7374 0.197336 15.3939 0.197336C14.9205 0.197336 14.4222 0.244235 13.8717 0.298213C13.6637 0.319454 13.4894 0.345112 13.3381 0.371676C13.1124 0.412401 12.9433 0.453975 12.808 0.481446C12.7398 0.4947 12.6805 0.505349 12.6221 0.512429C12.5637 0.518602 12.5071 0.523077 12.4424 0.523077C12.3557 0.523077 12.2557 0.515997 12.1248 0.497419C11.7238 0.439022 11.3574 0.348737 11.0698 0.260207C10.9265 0.216821 10.8025 0.173491 10.7052 0.136278C10.6565 0.117699 10.614 0.100877 10.5804 0.0867169C10.5459 0.0725568 10.5202 0.0593028 10.5052 0.0522227L10.5061 0.053129C10.4618 0.0301329 10.4194 0.0177285 10.3813 0.0106485C10.3432 0.00175586 10.3096 0 10.2804 0C10.2194 0 10.176 0.00883595 10.1415 0.0177285C10.107 0.0266211 10.0804 0.037213 10.0565 0.0469552C10.0105 0.0655333 9.97506 0.0850177 9.93966 0.106258C9.87504 0.145227 9.81313 0.188557 9.7476 0.239024C9.63341 0.327553 9.50778 0.437266 9.37411 0.566464C9.17411 0.759382 8.95989 0.993025 8.76522 1.24791C8.66785 1.37444 8.57672 1.50721 8.49442 1.64439C8.41212 1.78158 8.33956 1.92227 8.28202 2.07011C8.00057 2.80202 7.81473 3.47638 7.69969 4.09858C7.58375 4.72072 7.53951 5.2907 7.53951 5.81372C7.53951 6.6695 7.65897 7.39524 7.77406 8.00854C7.77406 8.03777 7.77497 8.06519 7.77673 8.09441C7.78029 8.15196 7.78647 8.21126 7.79264 8.27317C7.80238 8.36521 7.81298 8.45991 7.82096 8.53955C7.82538 8.57937 7.82895 8.61477 7.83161 8.64224C7.83252 8.65549 7.83337 8.6679 7.83337 8.67673L7.83427 8.68557V8.68823V8.68914V8.74136L7.94665 9.24139C7.78471 9.41839 7.64487 9.61663 7.536 9.83436C7.38375 10.137 7.29352 10.4786 7.29352 10.8397C7.29352 10.9991 7.3121 11.1637 7.34926 11.3274C7.43779 11.7229 7.55549 12.0681 7.69618 12.369C7.90683 12.8212 8.17412 13.1726 8.46967 13.4364C8.69889 13.6417 8.94403 13.7913 9.18651 13.9019C9.40067 14.4878 9.61664 14.9816 9.84406 15.4055C10.0706 15.8277 10.3096 16.179 10.5715 16.4746C10.6601 16.8897 10.7291 17.2968 10.73 17.7659C10.73 17.9252 10.7211 18.0916 10.7026 18.2686C10.6848 18.4385 10.6477 18.5854 10.5937 18.7182C10.5132 18.9164 10.3955 19.0854 10.2353 19.2457C10.0751 19.4032 9.87062 19.551 9.62905 19.6882C9.38391 19.8271 9.0998 19.9572 8.79093 20.0812C8.24928 20.3007 7.63156 20.5077 7.00585 20.7582C6.5368 20.9449 6.06153 21.1583 5.60841 21.4246C5.26856 21.6246 4.94197 21.8565 4.6411 22.1317C4.19063 22.5441 3.80208 23.0583 3.53394 23.6938C3.2649 24.3301 3.11531 25.0832 3.11622 25.9736C3.11622 26.0992 3.14278 26.2187 3.18611 26.3293C3.22593 26.4329 3.28172 26.5276 3.3472 26.6179C3.47113 26.786 3.6304 26.9365 3.82598 27.0816C4.16939 27.3348 4.62512 27.5719 5.21543 27.795C6.10044 28.1286 7.28639 28.4287 8.8201 28.6463C10.353 28.8641 12.2336 29.0003 14.4992 29.0003C16.4648 29.0003 18.1393 28.8985 19.5491 28.7295C20.6058 28.6021 21.5147 28.4375 22.2856 28.249C22.8644 28.1083 23.3662 27.9534 23.7963 27.7905C24.1185 27.6684 24.4017 27.541 24.6477 27.41C24.8318 27.3118 24.9946 27.2108 25.1389 27.1073C25.3548 26.9506 25.5283 26.7896 25.6601 26.6064C25.7265 26.5152 25.7805 26.4179 25.8203 26.3117C25.8601 26.2072 25.884 26.0922 25.884 25.9736C25.884 25.3644 25.8141 24.8201 25.684 24.3325ZM18.5367 20.2827L15.6958 24.7193L15.379 22.5413L16.1852 21.6881L15.663 20.8172L17.8667 19.6587C17.9278 19.7375 17.9924 19.8118 18.0605 19.8826C18.2066 20.0322 18.3668 20.1641 18.5367 20.2827ZM10.3698 4.93658C12.931 5.50474 17.9393 4.41883 17.9393 4.41883C17.9393 4.41883 17.9933 5.6605 18.8473 6.8004C19.1837 7.2482 19.4606 7.94828 19.6686 8.61381C19.6129 8.51027 19.4819 8.4713 19.2863 8.44655C18.8473 8.38724 18.195 8.34918 17.4605 8.38458C15.2781 8.49169 15.44 8.68993 14.5834 8.68993C13.7267 8.68993 13.8886 8.49169 11.7062 8.38458C10.9716 8.34918 10.3194 8.38724 9.87951 8.44655C9.65119 8.47662 9.50778 8.52267 9.47504 8.67487C9.46354 8.73151 9.44581 8.79523 9.36708 8.82621C9.60871 7.92353 10.2813 6.77032 10.3698 4.93658ZM19.2535 9.99533C19.2535 10.0077 19.2447 11.2592 18.3933 11.6866C18.1039 11.8326 17.741 11.9131 17.372 11.914C16.9826 11.914 16.6268 11.8255 16.3427 11.6582C16.0285 11.4742 15.817 11.2007 15.7135 10.8475C15.6887 10.7652 15.6666 10.6829 15.6436 10.6033C15.5763 10.3599 15.3949 9.68375 15.7799 9.38639C16.0277 9.19256 16.7968 9.07044 17.534 9.07044C18.2039 9.07044 18.8872 9.16158 19.0872 9.37047C19.2191 9.50856 19.2704 9.75461 19.2535 9.99533ZM13.5231 10.6033C13.5001 10.6829 13.477 10.7652 13.4532 10.8476C13.3497 11.2007 13.1381 11.4742 12.8248 11.6583C12.5399 11.8256 12.1841 11.9141 11.7946 11.9141C11.4256 11.9132 11.0636 11.8326 10.7734 11.6866C9.92199 11.2592 9.91401 10.0077 9.9131 9.99539C9.89628 9.75466 9.94759 9.50862 10.0786 9.37058C10.2795 9.16169 10.9627 9.07056 11.6327 9.07056C12.369 9.07056 13.139 9.19268 13.3877 9.3865C13.7718 9.68381 13.5904 10.3599 13.5231 10.6033ZM10.6796 14.9567C10.4574 14.5425 10.2362 14.0275 10.0087 13.3849L9.93349 13.1752L9.7246 13.0982C9.57943 13.0451 9.43783 12.9761 9.30246 12.8849C9.09804 12.7477 8.90422 12.5601 8.72631 12.2804C8.5484 12.0008 8.38913 11.6255 8.27409 11.1184C8.25194 11.0219 8.24311 10.9299 8.24311 10.8396C8.24311 10.6361 8.29176 10.4431 8.38471 10.2591C8.46083 10.106 8.56703 9.96169 8.69623 9.83068C8.91396 10.1599 9.09447 10.421 9.16001 10.4865C9.28478 10.6112 9.34675 10.4909 9.35649 10.2572C9.43347 10.7767 9.68042 11.6343 10.4778 12.0582C11.6257 12.668 13.3391 12.4397 13.9205 11.0821C14.1834 10.4696 14.1869 9.8714 14.5834 9.8714C14.9789 9.8714 14.9834 10.4697 15.2462 11.0821C15.8285 12.4397 17.5419 12.668 18.6898 12.0582C19.8368 11.4484 19.8448 9.93863 19.8448 9.83243C19.8448 9.77755 19.897 9.73597 19.9713 9.72799C20.0687 10.1377 20.1191 10.4157 20.1191 10.4157C20.1191 10.4157 20.2288 10.2059 20.3934 9.92623C20.4917 10.0413 20.5731 10.1652 20.6333 10.2944C20.7138 10.4679 20.7572 10.6493 20.7572 10.8378C20.7572 10.9289 20.7474 11.0219 20.7253 11.1175C20.6492 11.4556 20.5527 11.7352 20.4448 11.9671C20.2819 12.314 20.0943 12.553 19.8978 12.7282C19.7023 12.9035 19.4934 13.0176 19.2765 13.0982L19.0668 13.1743L18.9924 13.3849C18.765 14.0275 18.5428 14.5434 18.3207 14.9567C18.0977 15.3709 17.8764 15.6825 17.6464 15.9249L17.5552 16.0214L17.5269 16.1497C17.4242 16.6232 17.3216 17.1463 17.3216 17.7658C17.3216 17.9569 17.3313 18.1561 17.3526 18.3658C17.3782 18.6119 17.4349 18.8428 17.519 19.0552C17.5226 19.065 17.5278 19.0756 17.5314 19.0845L14.6489 20.6005L11.454 19.1181C11.5522 18.888 11.6186 18.6367 11.6469 18.3659C11.6691 18.1561 11.6779 17.957 11.6779 17.7658C11.6788 17.1463 11.5761 16.6224 11.4726 16.1489L11.4443 16.0205L11.3531 15.9249C11.1239 15.6806 10.9017 15.3709 10.6796 14.9567ZM10.6539 20.1411C10.8203 20.0075 10.9734 19.8579 11.1088 19.6897L13.5452 20.8208L13.0248 21.6881L13.8302 22.5413L13.5328 24.5919L10.4247 20.3093C10.5035 20.2552 10.5804 20.1995 10.6539 20.1411ZM24.9344 25.9698C24.9335 25.9751 24.9274 25.9928 24.9105 26.0211C24.8787 26.076 24.8043 26.1644 24.6787 26.2654C24.5698 26.353 24.4229 26.4512 24.2379 26.5522C23.9132 26.7301 23.4733 26.915 22.9157 27.0902C22.0785 27.354 20.9731 27.5947 19.5783 27.7699C18.1836 27.9434 16.4994 28.0514 14.4992 28.0514C12.5681 28.0514 10.9309 27.9505 9.56442 27.7867C8.53956 27.6637 7.66696 27.5044 6.93946 27.3274C6.39254 27.1938 5.92701 27.0496 5.54027 26.9026C5.24908 26.7929 5.00218 26.6814 4.79952 26.5725C4.64727 26.4911 4.51898 26.4106 4.41453 26.3362C4.25877 26.2247 4.15965 26.1229 4.11009 26.053C4.08528 26.0194 4.07293 25.9928 4.06852 25.9805C4.06585 25.9751 4.06495 25.9716 4.06495 25.9698C4.06495 25.4388 4.12516 24.9839 4.22954 24.5892C4.32068 24.244 4.44637 23.944 4.59947 23.6785C4.86675 23.2139 5.2181 22.8493 5.63582 22.5422C5.94734 22.3112 6.29693 22.1138 6.66685 21.9377C7.08191 21.7403 7.52263 21.5704 7.96517 21.4067V22.3625H8.29703H8.62889V21.1615C9.05193 21.0031 9.46434 20.8403 9.84842 20.6456L14.7593 27.4115L19.0499 20.7128C19.0631 20.7332 19.0764 20.7536 19.0888 20.773C19.2676 21.0607 19.3924 21.3739 19.4756 21.7289C19.5579 22.0829 19.5959 22.4793 19.5959 22.921C19.5959 23.9441 19.5959 24.8353 19.5959 25.4353H18.0544V26.0999H21.8493V25.4353H20.3076C20.3076 24.8353 20.3076 23.9441 20.3076 22.921C20.3076 22.2776 20.2341 21.6917 20.0518 21.1571C20.0359 21.1111 20.019 21.0651 20.0013 21.0199C20.5199 21.2244 21.0624 21.4084 21.5882 21.6173C22.0386 21.7952 22.4758 21.9899 22.8732 22.2209C23.1724 22.3944 23.4494 22.5891 23.6954 22.8103C24.0645 23.1457 24.3671 23.5413 24.5849 24.0484C24.8017 24.5547 24.9344 25.1777 24.9344 25.9698Z" fill="black"/>
</g>
<defs>
<clipPath id="clip0_137_639">
<rect width="29" height="29" fill="white"/>
</clipPath>
</defs>
</svg>
