<svg width="52" height="52" viewBox="0 0 52 52" fill="none" xmlns="http://www.w3.org/2000/svg">
<path d="M19.0667 24.2668C14.2803 24.2668 10.4 20.3866 10.4 15.6001V8.6668C10.4 7.70965 11.1762 6.93346 12.1333 6.93346H13.8667C14.8238 6.93346 15.6 6.15728 15.6 5.20013C15.6 4.24298 14.8238 3.4668 13.8667 3.4668H12.1333C9.26156 3.4668 6.93335 5.79501 6.93335 8.6668V15.6001C6.93786 19.575 8.89479 23.2944 12.168 25.5495C15.2988 28.3096 17.1649 32.2297 17.3333 36.4001C17.3333 43.1012 22.7656 48.5335 29.4667 48.5335C36.1677 48.5335 41.6 43.1012 41.6 36.4001V34.4241C45.3076 33.467 47.537 29.6852 46.5799 25.9776C45.6224 22.27 41.841 20.0406 38.1334 20.9977C34.4258 21.9552 32.1963 25.7367 33.1535 29.4443C33.7841 31.8865 35.6911 33.7935 38.1334 34.4241V36.4001C38.1334 41.1866 34.2531 45.0668 29.4667 45.0668C24.6803 45.0668 20.8 41.1866 20.8 36.4001C20.9772 32.2245 22.8564 28.3034 26 25.5495C29.2601 23.2864 31.2035 19.5688 31.2 15.6001V8.6668C31.2 5.79501 28.8718 3.4668 26 3.4668H24.2667C23.3095 3.4668 22.5333 4.24298 22.5333 5.20013C22.5333 6.15728 23.3095 6.93346 24.2667 6.93346H26C26.9572 6.93346 27.7333 7.70965 27.7333 8.6668V15.6001C27.7333 20.3866 23.8531 24.2668 19.0667 24.2668ZM39.8667 31.2001C37.952 31.2001 36.4 29.6481 36.4 27.7335C36.4 25.8188 37.952 24.2668 39.8667 24.2668C41.7813 24.2668 43.3334 25.8188 43.3334 27.7335C43.3334 29.6481 41.7813 31.2001 39.8667 31.2001Z" fill="#1C274C"/>
</svg>
