<svg width="19" height="19" viewBox="0 0 19 19" fill="none" xmlns="http://www.w3.org/2000/svg">
<path d="M15.8335 4.74935H9.50016L7.91683 3.16602H3.16683C2.296 3.16602 1.59141 3.87852 1.59141 4.74935L1.5835 14.2493C1.5835 15.1202 2.296 15.8327 3.16683 15.8327H15.8335C16.7043 15.8327 17.4168 15.1202 17.4168 14.2493V6.33268C17.4168 5.46185 16.7043 4.74935 15.8335 4.74935ZM15.8335 14.2493H3.16683V4.74935H7.25975L8.84308 6.33268H15.8335V14.2493ZM7.44975 11.4152L8.7085 10.1643V13.4577H10.2918V10.1643L11.5506 11.4231L12.6668 10.2989L9.50808 7.12435L6.3335 10.2989L7.44975 11.4152Z" fill="white"/>
</svg>
