<svg width="28" height="28" viewBox="0 0 28 28" fill="none" xmlns="http://www.w3.org/2000/svg">
<path d="M25.0071 7.29738L13.7417 18.561C12.6199 19.6827 9.28985 20.2022 8.54591 19.4583C7.80197 18.7145 8.30974 15.385 9.43156 14.2633L20.7088 2.98786C20.9869 2.6845 21.3235 2.44064 21.6986 2.27098C22.0735 2.10131 22.479 2.00934 22.8905 2.00067C23.3019 1.99202 23.711 2.0668 24.0928 2.22054C24.4745 2.37428 24.8212 2.6038 25.1118 2.89519C25.4025 3.18658 25.6311 3.53382 25.7837 3.91596C25.9364 4.29811 26.0102 4.70722 26.0004 5.11863C25.9906 5.53003 25.8975 5.93523 25.7268 6.30968C25.5561 6.68414 25.3113 7.02015 25.0071 7.29738Z" stroke="#0067FF" stroke-width="3" stroke-linecap="round" stroke-linejoin="round"/>
<path d="M12.4513 5.09766H6.64504C5.41309 5.09766 4.23169 5.58703 3.36057 6.45815C2.48946 7.32927 2 8.51075 2 9.7427V21.3553C2 22.5873 2.48946 23.7687 3.36057 24.6398C4.23169 25.511 5.41309 26.0003 6.64504 26.0003H19.4189C21.9853 26.0003 22.9027 23.9101 22.9027 21.3553V15.549" stroke="#0067FF" stroke-width="3" stroke-linecap="round" stroke-linejoin="round"/>
</svg>
