<svg width="35" height="29" viewBox="0 0 35 29" fill="none" xmlns="http://www.w3.org/2000/svg">
<path d="M17.5003 3.74375L17.0531 3.52015L13.8305 1.90888C13.8304 1.90885 13.8304 1.90882 13.8303 1.90878C12.6253 1.30668 11.3166 1 9.93192 1C7.55122 1 5.31293 1.94612 3.62123 3.67606L17.5003 3.74375ZM17.5003 3.74375L17.9475 3.52015M17.5003 3.74375L17.9475 3.52015M17.9475 3.52015L21.1692 1.90931C21.1693 1.9093 21.1693 1.90928 21.1693 1.90926C22.3746 1.3068 23.6836 1.0001 25.0686 1.0001C27.4491 1.0001 29.6867 1.9457 31.3775 3.67428C33.0529 5.38854 33.9854 7.66901 33.9998 10.1063C34.0141 12.5414 33.1102 14.8313 31.4595 16.5643L31.4586 16.5653C31.3991 16.6278 31.3358 16.6893 31.2684 16.7504C31.2683 16.7505 31.2683 16.7505 31.2682 16.7506L19.8193 27.1004C19.8193 27.1004 19.8193 27.1004 19.8193 27.1004C19.1535 27.7023 18.326 28 17.5001 28C16.6743 28 15.8468 27.7023 15.181 27.1004C15.181 27.1004 15.181 27.1004 15.181 27.1004L3.73214 16.7505L3.73065 16.7492M17.9475 3.52015L3.73065 16.7492M3.73065 16.7492C3.66697 16.6919 3.60419 16.6307 3.54272 16.5662C1.89103 14.8335 0.986454 12.5433 1.00015 10.1082L0.000169152 10.1026M3.73065 16.7492L0.000169152 10.1026M0.000169152 10.1026L1.00015 10.1082M0.000169152 10.1026L1.00015 10.1082M1.00015 10.1082C1.01385 7.67052 1.94634 5.38966 3.62109 3.67621L1.00015 10.1082Z" stroke="#C1C1C1" stroke-width="2"/>
</svg>
