<svg width="32" height="35" viewBox="0 0 32 35" fill="none" xmlns="http://www.w3.org/2000/svg">
<path d="M15.7073 0.000635115C15.4274 0.0101923 15.1579 0.108999 14.9382 0.282617L2.50195 10.0802C0.923542 11.3241 0 13.2249 0 15.2345V31.9381C0 33.1313 0.994355 34.1256 2.1875 34.1256H10.9375C12.1306 34.1256 13.125 33.1313 13.125 31.9381V23.1881C13.125 22.93 13.3043 22.7506 13.5625 22.7506H17.9375C18.1957 22.7506 18.375 22.93 18.375 23.1881V31.9381C18.375 33.1313 19.3694 34.1256 20.5625 34.1256H29.3125C30.5056 34.1256 31.5 33.1313 31.5 31.9381V15.2345C31.5 13.2249 30.5765 11.3241 28.998 10.0802L16.5618 0.282617C16.3191 0.0908833 16.0164 -0.00898223 15.7073 0.000635115ZM15.75 2.98452L27.3745 12.143C28.3231 12.8905 28.875 14.0276 28.875 15.2345V31.5006H21V23.1881C21 21.5125 19.6131 20.1256 17.9375 20.1256H13.5625C11.8869 20.1256 10.5 21.5125 10.5 23.1881V31.5006H2.625V15.2345C2.625 14.0276 3.1769 12.8905 4.12549 12.143L15.75 2.98452Z" fill="#0067FF"/>
</svg>
