<svg width="55" height="55" viewBox="0 0 55 55" fill="none" xmlns="http://www.w3.org/2000/svg">
<path d="M11.4583 6.875C8.92604 6.875 6.875 8.92604 6.875 11.4583V43.5417C6.875 46.074 8.92604 48.125 11.4583 48.125H43.5417C46.074 48.125 48.125 46.074 48.125 43.5417V11.4583C48.125 8.92604 46.074 6.875 43.5417 6.875H11.4583ZM11.4583 11.4583H43.5417V43.5417H11.4583V11.4583ZM17.8276 14.4751C15.8636 14.4751 14.6855 15.6557 14.6855 17.2278C14.6855 18.7999 15.8637 19.976 17.6306 19.976C19.5946 19.976 20.7727 18.7999 20.7727 17.2278C20.7727 15.6557 19.5944 14.4751 17.8276 14.4751ZM14.8421 22.9167V38.9583H20.625V22.9167H14.8421ZM25.3963 22.9167V38.9583H31.1792V30.19C31.1792 27.5798 33.0415 27.2046 33.6007 27.2046C34.1598 27.2046 35.6551 27.7654 35.6551 30.19V38.9583H41.25V30.19C41.25 25.1552 39.0127 22.9167 36.2146 22.9167C33.4165 22.9167 31.924 23.8484 31.1792 25.1546V22.9167H25.3963Z" fill="black"/>
</svg>
