<svg width="70" height="13" viewBox="0 0 70 13" fill="none" xmlns="http://www.w3.org/2000/svg">
<path d="M0.703125 1.09091H4.3892L6.92472 7.26989H7.05256L9.58807 1.09091H13.2741V12H10.3764V5.69318H10.2912L7.86222 11.9148H6.11506L3.68608 5.65057H3.60085V12H0.703125V1.09091ZM18.6408 12.1491C17.7672 12.1491 17.0144 11.9822 16.3823 11.6484C15.7537 11.3111 15.269 10.8281 14.9281 10.1996C14.5907 9.56747 14.4221 8.81108 14.4221 7.9304C14.4221 7.08523 14.5925 6.34659 14.9334 5.71449C15.2743 5.08239 15.7555 4.59055 16.377 4.23899C16.9984 3.88743 17.7317 3.71165 18.5769 3.71165C19.1948 3.71165 19.7541 3.80753 20.2548 3.99929C20.7555 4.19105 21.1834 4.46982 21.5385 4.83558C21.8936 5.1978 22.1671 5.63814 22.3588 6.15661C22.5506 6.67507 22.6465 7.25923 22.6465 7.90909V8.59091H15.3382V6.97159H19.9405C19.937 6.73722 19.8766 6.53125 19.7594 6.35369C19.6458 6.17259 19.4913 6.03232 19.296 5.93288C19.1042 5.8299 18.8858 5.77841 18.6408 5.77841C18.4029 5.77841 18.1845 5.8299 17.9856 5.93288C17.7868 6.03232 17.627 6.17081 17.5062 6.34837C17.389 6.52592 17.3269 6.73366 17.3198 6.97159V8.71875C17.3198 8.98153 17.3748 9.21591 17.4849 9.42188C17.595 9.62784 17.753 9.78942 17.959 9.90661C18.165 10.0238 18.4135 10.0824 18.7047 10.0824C18.9071 10.0824 19.0918 10.054 19.2587 9.99716C19.4292 9.94034 19.5748 9.85866 19.6955 9.75213C19.8162 9.64205 19.905 9.51065 19.9618 9.35795H22.6465C22.5542 9.92614 22.3358 10.4197 21.9913 10.8388C21.6468 11.2543 21.1905 11.5774 20.6223 11.8082C20.0577 12.0355 19.3972 12.1491 18.6408 12.1491ZM26.808 12.1065C26.2256 12.1065 25.6894 11.9538 25.1993 11.6484C24.7128 11.343 24.3222 10.8796 24.0274 10.2582C23.7362 9.63672 23.5906 8.85369 23.5906 7.90909C23.5906 6.92187 23.7433 6.11932 24.0487 5.50142C24.3577 4.88352 24.7554 4.43075 25.2419 4.14311C25.732 3.85547 26.2469 3.71165 26.7867 3.71165C27.1915 3.71165 27.5466 3.78267 27.852 3.92472C28.1574 4.06321 28.4131 4.24964 28.6191 4.48402C28.825 4.71484 28.9813 4.96875 29.0878 5.24574H29.1304V1.09091H32.0708V12H29.1517V10.6577H29.0878C28.9742 10.9347 28.8108 11.1832 28.5977 11.4034C28.3882 11.62 28.1325 11.7923 27.8307 11.9201C27.5324 12.0444 27.1915 12.1065 26.808 12.1065ZM27.8946 9.84801C28.1645 9.84801 28.3953 9.76989 28.5871 9.61364C28.7824 9.45384 28.9316 9.23011 29.0345 8.94247C29.1411 8.65128 29.1943 8.30682 29.1943 7.90909C29.1943 7.50426 29.1411 7.15803 29.0345 6.87038C28.9316 6.57919 28.7824 6.35724 28.5871 6.20455C28.3953 6.0483 28.1645 5.97017 27.8946 5.97017C27.6247 5.97017 27.3939 6.0483 27.2021 6.20455C27.0139 6.35724 26.8683 6.57919 26.7654 6.87038C26.6659 7.15803 26.6162 7.50426 26.6162 7.90909C26.6162 8.31392 26.6659 8.66193 26.7654 8.95312C26.8683 9.24077 27.0139 9.46271 27.2021 9.61896C27.3939 9.77166 27.6247 9.84801 27.8946 9.84801ZM33.5143 12V3.81818H36.4546V12H33.5143ZM34.9845 2.96591C34.5867 2.96591 34.2458 2.83452 33.9617 2.57173C33.6776 2.30895 33.5356 1.9929 33.5356 1.62358C33.5356 1.25426 33.6776 0.93821 33.9617 0.675426C34.2458 0.412642 34.5867 0.28125 34.9845 0.28125C35.3857 0.28125 35.7267 0.412642 36.0072 0.675426C36.2913 0.93821 36.4333 1.25426 36.4333 1.62358C36.4333 1.9929 36.2913 2.30895 36.0072 2.57173C35.7267 2.83452 35.3857 2.96591 34.9845 2.96591ZM37.9102 12V1.09091H40.8718V9.61364H45.2823V12H37.9102ZM46.5221 12V3.81818H49.4624V12H46.5221ZM47.9923 2.96591C47.5945 2.96591 47.2536 2.83452 46.9695 2.57173C46.6855 2.30895 46.5434 1.9929 46.5434 1.62358C46.5434 1.25426 46.6855 0.93821 46.9695 0.675426C47.2536 0.412642 47.5945 0.28125 47.9923 0.28125C48.3936 0.28125 48.7345 0.412642 49.015 0.675426C49.2991 0.93821 49.4411 1.25426 49.4411 1.62358C49.4411 1.9929 49.2991 2.30895 49.015 2.57173C48.7345 2.83452 48.3936 2.96591 47.9923 2.96591ZM53.9009 7.39773V12H50.9606V3.81818H53.7518V5.37358H53.837C54.0146 4.85511 54.3271 4.44851 54.7745 4.15376C55.2255 3.85902 55.7511 3.71165 56.3512 3.71165C56.93 3.71165 57.4325 3.84482 57.8587 4.11115C58.2884 4.37393 58.6204 4.73615 58.8548 5.1978C59.0927 5.65945 59.2099 6.18679 59.2063 6.77983V12H56.266V7.39773C56.2695 6.9929 56.1665 6.67507 55.957 6.44425C55.7511 6.21342 55.4634 6.09801 55.0941 6.09801C54.8526 6.09801 54.6413 6.15128 54.4602 6.25781C54.2827 6.3608 54.146 6.50994 54.0501 6.70526C53.9542 6.89702 53.9045 7.12784 53.9009 7.39773ZM63.2999 10.0611L63.3212 6.56676H63.7047L65.6863 3.81818H68.9888L65.665 8.10085H64.834L63.2999 10.0611ZM60.6578 12V1.09091H63.5982V12H60.6578ZM65.7076 12L63.8326 8.76136L65.7502 6.6733L69.074 12H65.7076Z" fill="#151414"/>
</svg>
