<svg width="31" height="31" viewBox="0 0 31 31" fill="none" xmlns="http://www.w3.org/2000/svg">
<path fill-rule="evenodd" clip-rule="evenodd" d="M4.6498 12.4004C3.82763 12.4004 3.03914 12.727 2.45777 13.3084C1.87641 13.8897 1.5498 14.6782 1.5498 15.5004C1.5498 16.3226 1.87641 17.1111 2.45777 17.6924C3.03914 18.2738 3.82763 18.6004 4.6498 18.6004C5.47198 18.6004 6.26047 18.2738 6.84184 17.6924C7.4232 17.1111 7.7498 16.3226 7.7498 15.5004C7.7498 14.6782 7.4232 13.8897 6.84184 13.3084C6.26047 12.727 5.47198 12.4004 4.6498 12.4004ZM12.3998 15.5004C12.3998 14.6782 12.7264 13.8897 13.3078 13.3084C13.8891 12.727 14.6776 12.4004 15.4998 12.4004C16.322 12.4004 17.1105 12.727 17.6918 13.3084C18.2732 13.8897 18.5998 14.6782 18.5998 15.5004C18.5998 16.3226 18.2732 17.1111 17.6918 17.6924C17.1105 18.2738 16.322 18.6004 15.4998 18.6004C14.6776 18.6004 13.8891 18.2738 13.3078 17.6924C12.7264 17.1111 12.3998 16.3226 12.3998 15.5004ZM23.2498 15.5004C23.2498 14.6782 23.5764 13.8897 24.1578 13.3084C24.7391 12.727 25.5276 12.4004 26.3498 12.4004C27.172 12.4004 27.9605 12.727 28.5418 13.3084C29.1232 13.8897 29.4498 14.6782 29.4498 15.5004C29.4498 16.3226 29.1232 17.1111 28.5418 17.6924C27.9605 18.2738 27.172 18.6004 26.3498 18.6004C25.5276 18.6004 24.7391 18.2738 24.1578 17.6924C23.5764 17.1111 23.2498 16.3226 23.2498 15.5004Z" fill="black"/>
</svg>
