<svg width="19" height="19" viewBox="0 0 19 19" fill="none" xmlns="http://www.w3.org/2000/svg">
<path d="M15.3838 10.2765C15.4155 10.0232 15.4392 9.76982 15.4392 9.50065C15.4392 9.23148 15.4155 8.97815 15.3838 8.72482L17.0542 7.41857C17.2046 7.29982 17.2442 7.08607 17.1492 6.9119L15.5659 4.17273C15.4946 4.04607 15.36 3.97482 15.2175 3.97482C15.17 3.97482 15.1225 3.98273 15.083 3.99857L13.1117 4.79023C12.7 4.47357 12.2567 4.21232 11.7738 4.0144L11.473 1.91648C11.4492 1.72648 11.283 1.58398 11.085 1.58398H7.91837C7.72045 1.58398 7.5542 1.72648 7.53045 1.91648L7.22962 4.0144C6.7467 4.21232 6.30337 4.48148 5.8917 4.79023L3.92045 3.99857C3.87295 3.98273 3.82545 3.97482 3.77795 3.97482C3.64337 3.97482 3.50879 4.04607 3.43754 4.17273L1.8542 6.9119C1.75129 7.08607 1.79879 7.29982 1.9492 7.41857L3.61962 8.72482C3.58795 8.97815 3.5642 9.2394 3.5642 9.50065C3.5642 9.7619 3.58795 10.0232 3.61962 10.2765L1.9492 11.5827C1.79879 11.7015 1.7592 11.9152 1.8542 12.0894L3.43754 14.8286C3.50879 14.9552 3.64337 15.0265 3.78587 15.0265C3.83337 15.0265 3.88087 15.0186 3.92045 15.0027L5.8917 14.2111C6.30337 14.5277 6.7467 14.789 7.22962 14.9869L7.53045 17.0848C7.5542 17.2748 7.72045 17.4173 7.91837 17.4173H11.085C11.283 17.4173 11.4492 17.2748 11.473 17.0848L11.7738 14.9869C12.2567 14.789 12.7 14.5198 13.1117 14.2111L15.083 15.0027C15.1305 15.0186 15.178 15.0265 15.2255 15.0265C15.36 15.0265 15.4946 14.9552 15.5659 14.8286L17.1492 12.0894C17.2442 11.9152 17.2046 11.7015 17.0542 11.5827L15.3838 10.2765ZM13.8163 8.92273C13.848 9.16815 13.8559 9.3344 13.8559 9.50065C13.8559 9.6669 13.84 9.84107 13.8163 10.0786L13.7055 10.9732L14.41 11.5273L15.265 12.1923L14.7109 13.1502L13.7055 12.7465L12.8821 12.414L12.1696 12.9523C11.8292 13.2057 11.5046 13.3957 11.18 13.5302L10.3409 13.8707L10.2142 14.7652L10.0559 15.834H8.94754L8.67045 13.8707L7.83129 13.5302C7.49087 13.3877 7.1742 13.2056 6.85754 12.9682L6.13712 12.414L5.29795 12.7544L4.29254 13.1582L3.73837 12.2002L4.59337 11.5352L5.29795 10.9811L5.18712 10.0865C5.16337 9.84107 5.14754 9.65898 5.14754 9.50065C5.14754 9.34232 5.16337 9.16023 5.18712 8.92273L5.29795 8.02815L4.59337 7.47398L3.73837 6.80898L4.29254 5.85107L5.29795 6.25482L6.12129 6.58732L6.83379 6.04898C7.1742 5.79565 7.49879 5.60565 7.82337 5.47107L8.66254 5.13065L8.7892 4.23607L8.94754 3.16732H10.048L10.325 5.13065L11.1642 5.47107C11.5046 5.61357 11.8213 5.79565 12.138 6.03315L12.8584 6.58732L13.6975 6.2469L14.703 5.84315L15.2571 6.80107L14.41 7.47398L13.7055 8.02815L13.8163 8.92273ZM9.5017 6.33398C7.75212 6.33398 6.33504 7.75107 6.33504 9.50065C6.33504 11.2502 7.75212 12.6673 9.5017 12.6673C11.2513 12.6673 12.6684 11.2502 12.6684 9.50065C12.6684 7.75107 11.2513 6.33398 9.5017 6.33398ZM9.5017 11.084C8.63087 11.084 7.91837 10.3715 7.91837 9.50065C7.91837 8.62982 8.63087 7.91732 9.5017 7.91732C10.3725 7.91732 11.085 8.62982 11.085 9.50065C11.085 10.3715 10.3725 11.084 9.5017 11.084Z" fill="white"/>
</svg>
