<svg width="50" height="50" viewBox="0 0 50 50" fill="none" xmlns="http://www.w3.org/2000/svg">
<path fill-rule="evenodd" clip-rule="evenodd" d="M19.2709 18.7487C19.2709 15.5846 21.8359 13.0195 25 13.0195C28.1642 13.0195 30.7292 15.5846 30.7292 18.7487C30.7292 21.9129 28.1642 24.4779 25 24.4779C21.8359 24.4779 19.2709 21.9129 19.2709 18.7487ZM25 16.1445C23.5617 16.1445 22.3959 17.3104 22.3959 18.7487C22.3959 20.1869 23.5617 21.3529 25 21.3529C26.4384 21.3529 27.6042 20.1869 27.6042 18.7487C27.6042 17.3104 26.4384 16.1445 25 16.1445Z" fill="#1C274C"/>
<path fill-rule="evenodd" clip-rule="evenodd" d="M25 25.5195C22.5088 25.5195 20.1763 26.021 18.4087 26.9049C16.7346 27.742 15.1042 29.1874 15.1042 31.2487L15.1039 31.3789C15.1007 32.442 15.0954 34.2324 16.7922 35.4608C17.5796 36.0306 18.6186 36.3941 19.9056 36.6258C21.2046 36.8595 22.8692 36.9779 25 36.9779C27.1309 36.9779 28.7954 36.8595 30.0944 36.6258C31.3815 36.3941 32.4204 36.0306 33.2079 35.4608C34.9046 34.2324 34.8994 32.442 34.8961 31.3789L34.8959 31.2487C34.8959 29.1874 33.2654 27.742 31.5913 26.9049C29.8238 26.021 27.4913 25.5195 25 25.5195ZM18.2292 31.2487C18.2292 31.0087 18.4643 30.371 19.8062 29.6999C21.0548 29.0758 22.8888 28.6445 25 28.6445C27.1113 28.6445 28.9452 29.0758 30.1938 29.6999C31.5357 30.371 31.7709 31.0087 31.7709 31.2487C31.7709 32.5081 31.6907 32.7012 31.3754 32.9293C31.1213 33.1133 30.5977 33.3599 29.5411 33.5502C28.4963 33.7381 27.0359 33.8529 25 33.8529C22.9642 33.8529 21.5038 33.7381 20.459 33.5502C19.4023 33.3599 18.8788 33.1133 18.6246 32.9293C18.3094 32.7012 18.2292 32.5081 18.2292 31.2487Z" fill="#1C274C"/>
<path fill-rule="evenodd" clip-rule="evenodd" d="M18.1737 4.27252C21.1819 3.24222 23.0469 2.60352 25 2.60352C26.9531 2.60352 28.8181 3.24222 31.8262 4.27252L33.3417 4.79129C36.4279 5.84768 38.8096 6.66293 40.5146 7.35558C41.3733 7.70447 42.1117 8.04241 42.7062 8.3877C43.2785 8.71997 43.8525 9.13443 44.2425 9.69006C44.6279 10.2393 44.8273 10.9144 44.9525 11.5644C45.0827 12.2401 45.1612 13.0507 45.2119 13.9813C45.3125 15.8293 45.3125 18.361 45.3125 21.6448V24.9814C45.3125 37.6918 35.7125 43.7858 30.0035 46.2798L29.9471 46.3043C29.2392 46.6137 28.5737 46.9043 27.8092 47.1002C27.0019 47.3068 26.1444 47.3952 25 47.3952C23.8556 47.3952 22.9981 47.3068 22.1908 47.1002C21.4262 46.9043 20.7609 46.6137 20.053 46.3043L19.9965 46.2798C14.2876 43.7858 4.6875 37.6918 4.6875 24.9814V21.645C4.6875 18.3614 4.6875 15.8293 4.78813 13.9813C4.83879 13.0507 4.91731 12.2401 5.04752 11.5644C5.17277 10.9144 5.37208 10.2393 5.75756 9.69006C6.14754 9.13443 6.72154 8.71997 7.29371 8.3877C7.88827 8.04241 8.62662 7.70447 9.48548 7.35558C11.1904 6.66293 13.5721 5.84768 16.6582 4.79131L18.1737 4.27252ZM25 5.72852C23.6298 5.72852 22.2815 6.16943 18.918 7.32081L17.7246 7.72929C14.5734 8.80797 12.2752 9.59529 10.6616 10.2508C9.85625 10.578 9.27271 10.8522 8.8631 11.09C8.66088 11.2075 8.52154 11.3044 8.42848 11.38C8.34958 11.4442 8.3195 11.4805 8.31519 11.4858C8.31117 11.4923 8.28527 11.5356 8.24881 11.638C8.20717 11.7549 8.16102 11.9225 8.11606 12.1557C8.02508 12.6279 7.95613 13.2765 7.9085 14.1513C7.81308 15.9037 7.8125 18.35 7.8125 21.7008V24.9814C7.8125 35.7629 15.8748 41.0691 21.2475 43.416C22.0215 43.7541 22.4683 43.9454 22.9658 44.0727C23.441 44.1943 24.0208 44.2702 25 44.2702C25.9792 44.2702 26.559 44.1943 27.0342 44.0727C27.5317 43.9454 27.9785 43.7541 28.7525 43.416C34.1252 41.0691 42.1875 35.7629 42.1875 24.9814V21.7008C42.1875 18.35 42.1869 15.9037 42.0915 14.1513C42.044 13.2765 41.975 12.6279 41.884 12.1557C41.839 11.9225 41.7929 11.7549 41.7512 11.638C41.7148 11.5355 41.6887 11.4923 41.6848 11.4858C41.6804 11.4804 41.6504 11.4441 41.5715 11.38C41.4785 11.3044 41.3392 11.2075 41.1369 11.09C40.7273 10.8522 40.1437 10.578 39.3383 10.2508C37.7248 9.59529 35.4267 8.80797 32.2754 7.72929L31.0821 7.32081C27.7185 6.16943 26.3702 5.72852 25 5.72852Z" fill="#1C274C"/>
</svg>
