<svg width="61" height="61" viewBox="0 0 61 61" fill="none" xmlns="http://www.w3.org/2000/svg">
<path d="M54.8543 15.7221C54.2697 13.5363 52.5465 11.813 50.3606 11.2284C46.3956 10.166 30.5 10.166 30.5 10.166C30.5 10.166 14.6045 10.166 10.6395 11.2284C8.45362 11.813 6.73037 13.5363 6.14579 15.7221C5.08337 19.6871 5.08337 30.4993 5.08337 30.4993C5.08337 30.4993 5.08337 41.3116 6.14579 45.2766C6.73037 47.4624 8.45362 49.1857 10.6395 49.7703C14.6045 50.8327 30.5 50.8327 30.5 50.8327C30.5 50.8327 46.3956 50.8327 50.3606 49.7703C52.549 49.1857 54.2697 47.4624 54.8543 45.2766C55.9167 41.3116 55.9167 30.4993 55.9167 30.4993C55.9167 30.4993 55.9167 19.6871 54.8543 15.7221ZM25.4167 37.1026V23.8961C25.4167 22.9176 26.4766 22.3076 27.323 22.7956L38.7605 29.3988C39.6068 29.8868 39.6068 31.1119 38.7605 31.5999L27.323 38.2031C26.4766 38.6937 25.4167 38.0811 25.4167 37.1026Z" fill="black"/>
</svg>
