<svg width="34" height="47" viewBox="0 0 34 47" fill="none" xmlns="http://www.w3.org/2000/svg">
<path d="M16.9925 0C7.62442 0 4.01711e-06 7.62746 0 16.9955C-5.87116e-06 33.4791 16.0359 46.0103 16.0359 46.0103C16.5992 46.459 17.3978 46.459 17.9611 46.0103C17.9611 46.0103 34 33.4791 34 16.9955C34 7.62746 26.3605 0 16.9925 0ZM16.9925 9.27328C21.2407 9.27328 24.7267 12.7473 24.7267 16.9955C24.7268 21.2437 21.2407 24.7267 16.9925 24.7267C12.7442 24.7267 9.27023 21.2437 9.27026 16.9955C9.27027 12.7473 12.7442 9.27328 16.9925 9.27328Z" fill="#1C274C"/>
</svg>
