<svg width="38" height="35" viewBox="0 0 38 35" fill="none" xmlns="http://www.w3.org/2000/svg">
<path d="M26.1182 22.454L25.1707 23.3862C25.1707 23.3862 22.9188 25.6026 16.7721 19.5531C10.6254 13.5039 12.8773 11.2877 12.8773 11.2877L13.4739 10.7005C14.9437 9.2541 15.0822 6.93189 13.7998 5.23658L11.1769 1.76869C9.58985 -0.329584 6.52311 -0.606765 4.70404 1.18347L1.43911 4.39666C0.537141 5.28435 -0.067295 6.43505 0.00600774 7.71156C0.193529 10.9773 1.68635 18.0038 10.0164 26.2019C18.8501 34.8955 27.1387 35.241 30.5282 34.9282C31.6003 34.8294 32.5326 34.289 33.2839 33.5494L36.2389 30.6415C38.2335 28.6785 37.6711 25.3131 35.119 23.9401L31.1449 21.8018C29.4692 20.9002 27.4278 21.165 26.1182 22.454Z" fill="#1C274C"/>
</svg>
