<svg width="37" height="37" viewBox="0 0 37 37" fill="none" xmlns="http://www.w3.org/2000/svg">
<path d="M25.8333 18.5C25.8333 22.55 22.55 25.8333 18.5 25.8333C14.4499 25.8333 11.1667 22.55 11.1667 18.5C11.1667 14.4499 14.4499 11.1667 18.5 11.1667C22.55 11.1667 25.8333 14.4499 25.8333 18.5ZM25.8333 18.5V21.25C25.8333 23.7813 27.8854 25.8333 30.4167 25.8333C32.9479 25.8333 35 23.7813 35 21.25V18.5C35 9.38731 27.6128 2 18.5 2C9.38731 2 2 9.38731 2 18.5C2 27.6128 9.38731 35 18.5 35H25.8333" stroke="#1C274C" stroke-width="4" stroke-linecap="round" stroke-linejoin="round"/>
</svg>
