<svg width="36" height="40" viewBox="0 0 36 40" fill="none" xmlns="http://www.w3.org/2000/svg">
<path d="M29.9021 6.0332H5.32433C4.44326 6.03518 3.59885 6.38606 2.97584 7.00906C2.35284 7.63207 2.00197 8.47648 2 9.35755V33.9353C2.00197 34.8163 2.35284 35.6607 2.97584 36.2838C3.59885 36.9068 4.44326 37.2576 5.32433 37.2596H29.9021C30.7831 37.2576 31.6275 36.9068 32.2506 36.2838C32.8736 35.6607 33.2244 34.8163 33.2264 33.9353V9.35755C33.2244 8.47648 32.8736 7.63207 32.2506 7.00906C31.6275 6.38606 30.7831 6.03518 29.9021 6.0332Z" stroke="#2B4EA2" stroke-width="4" stroke-miterlimit="10" stroke-linecap="round"/>
<path d="M8.68652 17.0156H16.6052" stroke="#2B4EA2" stroke-width="4" stroke-miterlimit="10" stroke-linecap="round"/>
<path d="M8.68652 23.8496H25.8312" stroke="#2B4EA2" stroke-width="4" stroke-miterlimit="10" stroke-linecap="round"/>
<path d="M12.7954 2V9.32102" stroke="#2B4EA2" stroke-width="4" stroke-miterlimit="10" stroke-linecap="round"/>
<path d="M22.4316 2V9.32102" stroke="#2B4EA2" stroke-width="4" stroke-miterlimit="10" stroke-linecap="round"/>
</svg>
