<svg width="48" height="48" viewBox="0 0 48 48" fill="none" xmlns="http://www.w3.org/2000/svg">
<path fill-rule="evenodd" clip-rule="evenodd" d="M14.5965 21.113C12.516 21.491 10.5825 22.4945 9.066 24.011C7.1025 25.9745 6 28.637 6 31.4135V37.472C6 39.9575 8.0145 41.972 10.5 41.972C16.776 41.972 31.224 41.972 37.5 41.972C39.9855 41.972 42 39.9575 42 37.472V31.4135C42 28.637 40.8975 25.9745 38.934 24.011C37.4175 22.4945 35.484 21.491 33.4035 21.113C34.1055 19.7045 34.5 18.1175 34.5 16.4375C34.5 10.643 29.7945 5.9375 24 5.9375C18.2055 5.9375 13.5 10.643 13.5 16.4375C13.5 18.1175 13.8945 19.7045 14.5965 21.113ZM31.35 23.933C29.457 25.7915 26.8605 26.9375 24 26.9375C21.1395 26.9375 18.543 25.7915 16.65 23.933C16.59 23.9405 16.53 23.9435 16.47 23.9435C14.4885 23.9435 12.588 24.731 11.1885 26.132C9.7875 27.533 9 29.4335 9 31.4135V37.472C9 38.3 9.672 38.972 10.5 38.972H37.5C38.328 38.972 39 38.3 39 37.472V31.4135C39 29.4335 38.2125 27.533 36.8115 26.132C35.412 24.731 33.5115 23.9435 31.53 23.9435C31.47 23.9435 31.41 23.9405 31.35 23.933ZM24 8.9375C28.14 8.9375 31.5 12.299 31.5 16.4375C31.5 20.5775 28.14 23.9375 24 23.9375C19.86 23.9375 16.5 20.5775 16.5 16.4375C16.5 12.299 19.86 8.9375 24 8.9375Z" fill="#0067FF"/>
<path fill-rule="evenodd" clip-rule="evenodd" d="M30 30.0117H28.5C27.672 30.0117 27 30.6837 27 31.5117C27 32.3397 27.672 33.0117 28.5 33.0117H30V34.5117C30 35.3397 30.672 36.0117 31.5 36.0117C32.328 36.0117 33 35.3397 33 34.5117V33.0117H34.5C35.328 33.0117 36 32.3397 36 31.5117C36 30.6837 35.328 30.0117 34.5 30.0117H33V28.5117C33 27.6837 32.328 27.0117 31.5 27.0117C30.672 27.0117 30 27.6837 30 28.5117V30.0117Z" fill="#0067FF"/>
</svg>
