<svg width="38" height="36" viewBox="0 0 38 36" fill="none" xmlns="http://www.w3.org/2000/svg">
<path d="M17.4826 3.73905C17.9245 2.74775 18.1455 2.25209 18.4532 2.09946C18.7204 1.96685 19.0342 1.96685 19.3014 2.09946C19.609 2.25209 19.8301 2.74775 20.2719 3.73905L23.7914 11.6349C23.9222 11.928 23.9875 12.0745 24.0886 12.1867C24.1779 12.286 24.2873 12.3654 24.4093 12.4198C24.5473 12.4813 24.7068 12.4981 25.026 12.5318L33.623 13.4391C34.7024 13.5531 35.2419 13.61 35.4822 13.8554C35.6909 14.0686 35.7878 14.3671 35.7443 14.6623C35.6943 15.002 35.2912 15.3652 34.485 16.0918L28.063 21.8792C27.8248 22.0939 27.7055 22.2014 27.6301 22.3321C27.5633 22.448 27.5215 22.5764 27.5076 22.7093C27.4917 22.8595 27.5249 23.0164 27.5915 23.3303L29.3853 31.7869C29.6105 32.8487 29.7231 33.3795 29.5639 33.6837C29.4256 33.9483 29.1717 34.1327 28.8776 34.1825C28.539 34.2397 28.0689 33.9687 27.1287 33.4265L19.6402 29.1072C19.3623 28.9469 19.2233 28.8669 19.0756 28.8354C18.9448 28.8078 18.8097 28.8078 18.679 28.8354C18.5312 28.8669 18.3923 28.9469 18.1144 29.1072L10.6259 33.4265C9.68573 33.9687 9.21565 34.2397 8.87704 34.1825C8.5829 34.1327 8.32898 33.9483 8.19071 33.6837C8.03155 33.3795 8.14414 32.8487 8.36934 31.7869L10.163 23.3303C10.2296 23.0164 10.2629 22.8595 10.2471 22.7093C10.2331 22.5764 10.1913 22.448 10.1245 22.3321C10.049 22.2014 9.92987 22.0939 9.69153 21.8792L3.26969 16.0918C2.46346 15.3652 2.06034 15.002 2.01022 14.6623C1.9667 14.3671 2.06368 14.0686 2.27237 13.8554C2.51263 13.61 3.0523 13.5531 4.13163 13.4391L12.7287 12.5318C13.0478 12.4981 13.2073 12.4813 13.3453 12.4198C13.4673 12.3654 13.5766 12.286 13.666 12.1867C13.7671 12.0745 13.8324 11.928 13.9631 11.6349L17.4826 3.73905Z" stroke="#0067FF" stroke-width="3" stroke-linecap="round" stroke-linejoin="round"/>
</svg>
