<svg width="40" height="40" viewBox="0 0 40 40" fill="none" xmlns="http://www.w3.org/2000/svg">
<path d="M20 2L24.0714 12.3231C24.4472 13.276 24.635 13.7524 24.9228 14.1542C25.1778 14.5103 25.4896 14.8221 25.8458 15.0772C26.2476 15.3649 26.724 15.5528 27.677 15.9286L38 20L27.677 24.0714C26.724 24.4472 26.2476 24.635 25.8458 24.9228C25.4896 25.1778 25.1778 25.4896 24.9228 25.8458C24.635 26.2476 24.4472 26.724 24.0714 27.677L20 38L15.9286 27.677C15.5528 26.724 15.3649 26.2476 15.0772 25.8458C14.8221 25.4896 14.5103 25.1778 14.1542 24.9228C13.7524 24.635 13.276 24.4472 12.3231 24.0714L2 20L12.3231 15.9286C13.276 15.5528 13.7524 15.3649 14.1542 15.0772C14.5103 14.8221 14.8221 14.5103 15.0772 14.1542C15.3649 13.7524 15.5528 13.276 15.9286 12.3231L20 2Z" stroke="#0067FF" stroke-width="4" stroke-linecap="round" stroke-linejoin="round"/>
</svg>
